<svg xmlns="http://www.w3.org/2000/svg" width="139" height="88" fill="none" xmlns:v="https://vecta.io/nano"><path d="M0 12C0 5.373 5.373 0 12 0h115c6.627 0 12 5.373 12 12v64c0 6.627-5.373 12-12 12H12C5.373 88 0 82.627 0 76V12z" fill="#fafafa"/><path d="M10.354 7.646a.5.5 0 0 0-.707 0l-3.182 3.182a.5.5 0 0 0 .707.707L10 8.707l2.828 2.828a.5.5 0 0 0 .707-.707l-3.182-3.182zM9.5 79a.5.5 0 1 0 1 0h-1zm0-71v71h1V8h-1z" fill="#e0e0e0"/><path d="M18.656 12.414c.328 0 .608-.029.84-.086s.409-.146.531-.266.188-.284.188-.484c0-.182-.06-.366-.18-.551a2.47 2.47 0 0 0-.535-.562 6.11 6.11 0 0 0-.883-.574l.258-.512a6.15 6.15 0 0 1 .813.496 3.44 3.44 0 0 1 .594.535 2.04 2.04 0 0 1 .363.563 1.52 1.52 0 0 1 .121.594c0 .325-.075.595-.226.809s-.375.367-.68.469-.684.148-1.145.148c-.156 0-.31-.007-.461-.02l-.422-.062v-.59l.438.07a3.46 3.46 0 0 0 .387.024zm4.203-2.152a1.13 1.13 0 0 1 .586.152 1.3 1.3 0 0 1 .438.438 2.19 2.19 0 0 1 .281.676 3.79 3.79 0 0 1 .101.879h.527V13h-.578c-.057.323-.172.622-.344.898a2.29 2.29 0 0 1-.746.723c-.325.203-.744.357-1.262.461l-.195-.512a4.11 4.11 0 0 0 1.008-.332 2.04 2.04 0 0 0 .68-.516 1.63 1.63 0 0 0 .348-.723h-.68c-.469 0-.823-.092-1.062-.277s-.355-.473-.355-.863c0-.19.027-.379.082-.566a1.8 1.8 0 0 1 .242-.516 1.26 1.26 0 0 1 .395-.375 1.02 1.02 0 0 1 .535-.141zm.125 2.145h.75a4.45 4.45 0 0 0-.078-.645 1.79 1.79 0 0 0-.16-.492c-.068-.138-.155-.242-.262-.312a.67.67 0 0 0-.387-.109.55.55 0 0 0-.418.164.96.96 0 0 0-.219.395 1.65 1.65 0 0 0-.062.43c0 .208.069.355.207.441s.35.129.629.129zm4.379.594c-.305 0-.538-.056-.699-.168a1.1 1.1 0 0 1-.375-.473c-.117.213-.272.374-.465.48S25.359 13 25 13h-.359v-.594h.367c.232 0 .422-.029.57-.086s.263-.156.336-.289.113-.318.113-.547l-.004-.145-.012-.184-.02-.25.535-.066.059.754a1 1 0 0 0 .215.582c.128.156.32.23.57.23.294 0 .496-.079.606-.238s.164-.389.164-.684l-.004-.145-.012-.184-.02-.25.535-.066.059.754c.013.224.074.415.184.574s.283.238.52.238c.159 0 .284-.039.375-.117a.67.67 0 0 0 .195-.32 1.52 1.52 0 0 0 .058-.43c0-.125-.008-.25-.023-.375l-.059-.355-.062-.297.555-.148a4.46 4.46 0 0 1 .105.531 4.09 4.09 0 0 1 .039.563 2.46 2.46 0 0 1-.113.754c-.075.234-.195.425-.367.57s-.404.216-.695.219c-.266 0-.475-.057-.629-.172a1.13 1.13 0 0 1-.348-.461 1.38 1.38 0 0 1-.453.477 1.18 1.18 0 0 1-.617.156zM18.857 77.09l-.187-.512c.406-.094.734-.236.984-.426s.434-.414.551-.68.176-.561.176-.887c0-.213-.022-.437-.066-.672a5.37 5.37 0 0 0-.191-.727l.539-.184c.086.255.151.508.195.758a3.96 3.96 0 0 1 .07.73c0 .425-.075.815-.226 1.172a2.26 2.26 0 0 1-.684.91c-.305.247-.691.419-1.16.516zM24.22 75c-.187 0-.344-.029-.469-.086s-.218-.122-.285-.195a2.87 2.87 0 0 1-.262 1.051 2.24 2.24 0 0 1-.672.832c-.297.229-.668.392-1.121.488l-.187-.512c.406-.094.734-.236.984-.426s.434-.414.551-.68.176-.561.176-.887c0-.213-.022-.437-.066-.672s-.108-.479-.192-.727l.535-.184.199.758c.057.219.15.381.277.488s.294.156.5.156h.168V75h-.137zm4.684-4.879l.492.492-.492.492-.492-.492.492-.492zm.191 2.441c-.182 0-.365.044-.547.133s-.359.215-.539.379a4.68 4.68 0 0 0-.531.586 9.32 9.32 0 0 0-.523.746h.738c.351 0 .667-.017.945-.051s.516-.089.711-.164.349-.177.453-.305a.72.72 0 0 0 .156-.469.83.83 0 0 0-.863-.855zm-2.726 1.742c.213-.367.43-.694.648-.98s.439-.534.66-.734.451-.354.68-.461.468-.16.707-.16c.286 0 .54.062.762.187a1.35 1.35 0 0 1 .519.504c.125.214.188.453.188.719a1.38 1.38 0 0 1-.191.742 1.4 1.4 0 0 1-.551.504 2.89 2.89 0 0 1-.887.285 7.12 7.12 0 0 1-1.195.09h-.277a5.44 5.44 0 0 1-.871-.059 1.7 1.7 0 0 1-.586-.199.94.94 0 0 1-.344-.363 1.36 1.36 0 0 1-.488.473c-.187.099-.44.148-.758.148h-.18l.004-.594h.18c.367-.003.618-.085.754-.246s.207-.397.207-.707l-.012-.324-.019-.328.535-.062.059.856c.016.193.059.357.129.492s.182.206.328.219zm70.583-16.409a1.18 1.18 0 0 0-.106-.508.86.86 0 0 0-.289-.359.71.71 0 0 0-.43-.137c-.135 0-.254.034-.356.102a.97.97 0 0 0-.266.27 2.11 2.11 0 0 0-.191.375l-.148.418.488.203.414.16c.125.039.225.059.301.059.185 0 .328-.052.43-.156s.152-.249.152-.426zm.519-.316a1.24 1.24 0 0 0 .133.402 1.04 1.04 0 0 0 .258.309c.102.078.212.117.332.117h.137V59h-.137c-.164 0-.323-.042-.477-.125a.93.93 0 0 1-.367-.367.85.85 0 0 1-.363.41c-.161.094-.37.141-.625.141a1.52 1.52 0 0 1-.461-.074l-.445-.168-.398-.172a.83.83 0 0 0-.305-.074c-.13 0-.234.033-.312.098s-.133.16-.172.293a2.51 2.51 0 0 0-.074.504l-.016.734.004.457.016.398.027.434h-.555l-.031-.652-.008-.605.023-.82c.016-.258.055-.488.117-.691s.16-.375.293-.508a.97.97 0 0 1 .551-.262 5.54 5.54 0 0 1 .234-.656c.086-.198.191-.37.308-.516a1.25 1.25 0 0 1 .414-.34c.156-.081.337-.121.543-.121a1.23 1.23 0 0 1 .637.168 1.4 1.4 0 0 1 .48.449c.127.19.207.405.238.645zM98.175 59v-.594h.863v-.098a4.97 4.97 0 0 1 .074-.855 3.41 3.41 0 0 1 .23-.785c.104-.237.242-.43.414-.57a.96.96 0 0 1 .626-.215c.21 0 .39.051.539.152a.96.96 0 0 1 .343.418c.08.18.121.387.121.621a1.86 1.86 0 0 1-.144.719 2.07 2.07 0 0 1-.391.617c-.166.182-.358.327-.574.434a1.5 1.5 0 0 1-.68.16 2.2 2.2 0 0 0 .176.477c.086.169.195.333.328.492a1.93 1.93 0 0 0 .473.406 3.64 3.64 0 0 1 .082-.848c.057-.248.148-.45.273-.617s.293-.293.496-.379.448-.129.735-.129h.156V59h-.164c-.203 0-.375.027-.516.082a.8.8 0 0 0-.336.242c-.083.109-.144.246-.183.41a2.69 2.69 0 0 0-.055.578l.004.184.012.191-.414.395a2.92 2.92 0 0 1-.774-.555 2.97 2.97 0 0 1-.527-.719 2.96 2.96 0 0 1-.277-.809h-.91zm2.2-2.547a.49.49 0 0 0-.348.145 1.09 1.09 0 0 0-.25.398 2.96 2.96 0 0 0-.152.59 4.81 4.81 0 0 0-.051.719v.106c.25 0 .473-.059.668-.176s.348-.28.457-.48a1.41 1.41 0 0 0 .168-.68c0-.193-.044-.344-.133-.453a.44.44 0 0 0-.359-.168zM104.882 59c-.305 0-.538-.056-.7-.168a1.1 1.1 0 0 1-.375-.473 1.18 1.18 0 0 1-.465.48c-.19.107-.464.16-.824.16h-.359v-.594h.367c.232 0 .422-.029.57-.086s.263-.156.336-.289.114-.318.114-.547l-.004-.145-.012-.184-.02-.25.536-.066.058.754a1 1 0 0 0 .215.582c.128.156.32.23.57.23.295 0 .496-.079.606-.238s.164-.389.164-.684l-.004-.145-.012-.184-.019-.25.535-.066.058.754c.013.224.075.415.184.574s.283.238.52.238a.56.56 0 0 0 .375-.117.67.67 0 0 0 .195-.32 1.52 1.52 0 0 0 .058-.43 2.95 2.95 0 0 0-.023-.375l-.059-.355-.062-.297.555-.148c.044.167.079.344.105.531a4.09 4.09 0 0 1 .039.563 2.46 2.46 0 0 1-.113.754c-.073.234-.195.424-.367.57s-.404.216-.696.219c-.265 0-.475-.057-.629-.172a1.13 1.13 0 0 1-.347-.461 1.39 1.39 0 0 1-.453.477c-.174.107-.381.156-.617.156zm9.902-3.66l.473.469-.473.477-.469-.477.469-.469zm-1.188 0l.473.469-.473.477-.468-.477.468-.469zm3.02 1.461l.535-.062.063.863c.015.255.091.453.226.594s.328.211.578.211h.129V59h-.129c-.289 0-.527-.061-.715-.184s-.328-.303-.429-.543a1.62 1.62 0 0 1-.821.563c-.343.109-.817.164-1.421.164h-.657c-.461 0-.871-.027-1.23-.082s-.663-.147-.91-.277-.431-.31-.559-.531-.191-.497-.191-.828c0-.164.017-.325.05-.484s.084-.316.141-.465l.5.188-.094.352c-.026.122-.039.24-.039.352 0 .25.054.453.16.609s.259.276.457.359a2.66 2.66 0 0 0 .735.172 9.34 9.34 0 0 0 .98.043h.653a5.87 5.87 0 0 0 1.078-.086c.302-.057.534-.156.695-.297s.246-.345.246-.605l-.008-.309-.023-.309zm1.57 2.199h-.191v-.594h.176a.69.69 0 0 0 .449-.148c.123-.099.23-.232.324-.391l.281-.504a4.07 4.07 0 0 1 .305-.508c.112-.159.247-.288.406-.387s.36-.152.594-.152c.26 0 .482.056.664.168s.333.259.445.449.19.406.235.648a1.48 1.48 0 0 0 .148.434.84.84 0 0 0 .254.289.56.56 0 0 0 .324.102h.137V59h-.141a1 1 0 0 1-.488-.129c-.156-.086-.28-.204-.371-.355a1.09 1.09 0 0 1-.391.422c-.164.102-.372.152-.625.152a1.46 1.46 0 0 1-.519-.09c-.156-.062-.307-.147-.453-.254a4.67 4.67 0 0 1-.442-.375c-.104.128-.207.238-.308.332a1.12 1.12 0 0 1-.344.219c-.128.052-.284.078-.469.078zm2.348-2.109c-.149 0-.281.05-.399.148a1.52 1.52 0 0 0-.312.371c-.089.148-.167.298-.234.449.091.094.182.178.273.254a2.63 2.63 0 0 0 .266.195 1.49 1.49 0 0 0 .308.156.86.86 0 0 0 .278.051c.208 0 .365-.055.472-.164s.164-.271.164-.477c0-.281-.071-.516-.215-.703a.71.71 0 0 0-.601-.281zm2.039 1.516h.312V59h-.312v-.594zm1.355 1.289l.473.469-.473.477-.468-.477.468-.469zm-1.187 0l.473.469-.473.477-.469-.477.469-.469zm1.371-2.895l.535-.062.059.851c.01.177.049.327.117.449s.164.211.281.273a.88.88 0 0 0 .414.094h.121V59h-.125c-.192 0-.36-.029-.504-.086s-.257-.138-.351-.234a1.19 1.19 0 0 1-.223-.316 1.14 1.14 0 0 1-.531.484c-.227.101-.475.152-.746.152h-.371v-.594h.371c.336 0 .583-.077.742-.23s.242-.399.242-.734l-.011-.332-.02-.309zm3.754-3.426l.473.469-.473.477-.469-.477.469-.469zm-1.188 0l.473.469-.473.477-.468-.477.468-.469zm.77 3.664c.135 0 .267-.013.394-.039l.383-.094a3.41 3.41 0 0 0-.078-.449c-.034-.156-.083-.301-.148-.434a.92.92 0 0 0-.246-.328c-.102-.083-.231-.125-.387-.125a.57.57 0 0 0-.414.156.93.93 0 0 0-.235.379 1.45 1.45 0 0 0-.07.43c0 .203.072.338.215.406s.339.098.586.098zm-.477 1.367c.313 0 .563-.02.75-.058s.327-.129.411-.262.128-.34.128-.621a3.73 3.73 0 0 1-.41.102 2.76 2.76 0 0 1-.453.035c-.419 0-.737-.086-.953-.258s-.32-.434-.32-.785a1.95 1.95 0 0 1 .144-.73c.097-.24.239-.439.426-.598s.414-.238.68-.238c.252 0 .467.066.644.199s.322.305.434.523a2.68 2.68 0 0 1 .246.727c.055.266.082.536.082.813 0 .372-.033.675-.098.906s-.166.405-.312.527-.334.202-.571.246a4.86 4.86 0 0 1-.875.066h-1.437v-.594h1.484z" fill="#9e9e9e"/><path d="M129.354 44.354a.5.5 0 0 0 0-.707l-3.182-3.182a.5.5 0 1 0-.708.707L128.293 44l-2.829 2.828a.5.5 0 1 0 .708.707l3.182-3.182zM10 43.5a.5.5 0 1 0 0 1v-1zm119 0H10v1h119v-1z" fill="#e0e0e0"/><path d="M50 35.5a.5.5 0 1 0 0-1v1zm-20.354-.854a.5.5 0 0 0 0 .707l3.182 3.182a.5.5 0 0 0 .707-.707L30.707 35l2.828-2.828a.5.5 0 0 0-.707-.707l-3.182 3.182zM50 34.5H30v1h20v-1z" fill="#4caf50"/><g stroke="#f44336"><path d="M92 29L68 53"/><path d="M53 38L68 53" stroke-linecap="round"/></g><path d="M104.287 17.213a.5.5 0 0 0-.5-.5h-4.5a.5.5 0 1 0 0 1h4v4a.5.5 0 1 0 1 0v-4.5zm-.853-.354l-27 27 .707.707 27-27-.707-.707zM50.566 34.86a.5.5 0 0 0-.707.707l.707-.707zm-.707.707l9 9 .707-.707-9-9-.707.707z" fill="#4caf50"/></svg>